Coordinates
version=1
nRows=26
nColumns=27
inDegrees=yes

Units are S.I. units (second, meters, Newtons, ...)
If the header above contains a line with 'inDegrees', this indicates whether rotational values are in degrees (yes) or radians (no).

endheader
time	pelvis_rotation	pelvis_tilt	pelvis_list	pelvis_tx	pelvis_ty	pelvis_tz	hip_flexion_r	hip_adduction_r	hip_rotation_r	knee_angle_r	knee_rotation_r	knee_adduction_r	knee_angle_r_beta	ankle_angle_r	subtalar_angle_r	mtp_angle_r	hip_flexion_l	hip_adduction_l	hip_rotation_l	knee_angle_l	knee_rotation_l	knee_adduction_l	knee_angle_l_beta	ankle_angle_l	subtalar_angle_l	mtp_angle_l
      3.27500000	      6.61311466	    -32.08670706	      5.67885285	     -0.03504599	      0.54724043	     -1.17806323	    115.47119881	    -45.55735921	     14.75938831	     96.51225539	      0.00000000	      9.92074407	      1.68445663	     14.61528876	      0.00000000	      0.00000000	    107.86843068	    -30.28794756	      8.20675359	     90.50071965	      0.00000000	     -9.94399605	      1.57953553	     12.07236099	      0.00000000	      0.00000000
      3.28000000	      6.56549559	    -32.06404071	      5.64029492	     -0.03496710	      0.54572361	     -1.17804524	    115.68646351	    -45.52490042	     14.93840362	     96.73455196	      0.00000000	      9.92096675	      1.68833643	     14.67860689	      0.00000000	      0.00000000	    108.08975633	    -30.34387930	      8.38304045	     90.74225285	      0.00000000	     -9.94418711	      1.58375108	     12.13083374	      0.00000000	      0.00000000
      3.28500000	      6.52749797	    -32.04272011	      5.61313807	     -0.03489452	      0.54417141	     -1.17804178	    115.92934102	    -45.49869049	     15.13489243	     96.96603665	      0.00000000	      9.92124640	      1.69237660	     14.73296139	      0.00000000	      0.00000000	    108.31261713	    -30.38290899	      8.56219341	     90.99324156	      0.00000000	     -9.94435151	      1.58813166	     12.22320149	      0.00000000	      0.00000000
      3.29000000	      6.47919683	    -32.02715428	      5.59457353	     -0.03484206	      0.54262290	     -1.17804097	    116.19100580	    -45.44417317	     15.35864407	     97.19749664	      0.00000000	      9.92154907	      1.69641634	     14.76387795	      0.00000000	      0.00000000	    108.53689839	    -30.43803120	      8.72435592	     91.23631930	      0.00000000	     -9.94454700	      1.59237417	     12.27937937	      0.00000000	      0.00000000
      3.29500000	      6.48693474	    -31.94282325	      5.60273459	     -0.03465325	      0.54109457	     -1.17809598	    116.40386769	    -45.48194224	     15.58948750	     97.42970009	      0.00000000	      9.92192184	      1.70046906	     14.85118890	      0.00000000	      0.00000000	    108.66172105	    -30.43264792	      8.85933410	     91.48297142	      0.00000000	     -9.94466262	      1.59667906	     12.37626838	      0.00000000	      0.00000000
      3.30000000	      6.42077741	    -31.95766718	      5.52722112	     -0.03461571	      0.53950022	     -1.17806628	    116.62420699	    -45.41839406	     15.73847667	     97.66128004	      0.00000000	      9.92208869	      1.70451089	     14.91380616	      0.00000000	      0.00000000	    108.96883716	    -30.48231849	      9.10585453	     91.73950596	      0.00000000	     -9.94491721	      1.60115643	     12.44162302	      0.00000000	      0.00000000
      3.30500000	      6.36363821	    -31.93345619	      5.51083419	     -0.03451936	      0.53791499	     -1.17808413	    116.87447998	    -45.36075430	     15.95834763	     97.89276687	      0.00000000	      9.92227779	      1.70855110	     14.98247416	      0.00000000	      0.00000000	    109.17644261	    -30.53383479	      9.27658297	     91.99455610	      0.00000000	     -9.94506226	      1.60560790	     12.53317333	      0.00000000	      0.00000000
      3.31000000	      6.33764471	    -31.91264770	      5.48669156	     -0.03441346	      0.53632978	     -1.17811483	    117.12089798	    -45.34117614	     16.16601574	     98.12514356	      0.00000000	      9.92256003	      1.71260683	     15.04855848	      0.00000000	      0.00000000	    109.40602635	    -30.54524669	      9.46924994	     92.24762030	      0.00000000	     -9.94525445	      1.61002470	     12.59530953	      0.00000000	      0.00000000
      3.31500000	      6.28229044	    -31.88195180	      5.47383962	     -0.03429697	      0.53471585	     -1.17815570	    117.37890886	    -45.28410490	     16.40335460	     98.36281589	      0.00000000	      9.92287812	      1.71675500	     15.09705624	      0.00000000	      0.00000000	    109.61495381	    -30.59584614	      9.63537991	     92.50481227	      0.00000000	     -9.94544234	      1.61451355	     12.65808426	      0.00000000	      0.00000000
      3.32000000	      6.24770693	    -31.83257881	      5.43429723	     -0.03417393	      0.53309533	     -1.17819509	    117.58610274	    -45.27017296	     16.59189944	     98.59594062	      0.00000000	      9.92309098	      1.72082379	     15.16702801	      0.00000000	      0.00000000	    109.82160428	    -30.60259724	      9.84814456	     92.76483664	      0.00000000	     -9.94560869	      1.61905183	     12.76418607	      0.00000000	      0.00000000
      3.32500000	      6.31193204	    -31.71344588	      5.32242002	     -0.03396329	      0.53151397	     -1.17830332	    117.63778056	    -45.45168050	     16.65534371	     98.80707086	      0.00000000	      9.92347421	      1.72450871	     15.23160581	      0.00000000	      0.00000000	    110.02561648	    -30.45709289	     10.16400739	     93.02994339	      0.00000000	     -9.94572655	      1.62367882	     12.82140813	      0.00000000	      0.00000000
      3.33000000	      6.14998541	    -31.73661076	      5.37780705	     -0.03389455	      0.52986251	     -1.17830395	    118.02430317	    -45.19734143	     17.01426563	     99.05872324	      0.00000000	      9.92367118	      1.72890087	     15.28746185	      0.00000000	      0.00000000	    110.21908129	    -30.66396399	     10.22434519	     93.27845008	      0.00000000	     -9.94597828	      1.62801608	     12.91515690	      0.00000000	      0.00000000
      3.33500000	      6.10011008	    -31.71589179	      5.33096317	     -0.03373074	      0.52825214	     -1.17835419	    118.25215324	    -45.17184071	     17.19323790	     99.29260493	      0.00000000	      9.92396203	      1.73298288	     15.34684817	      0.00000000	      0.00000000	    110.46075252	    -30.69331215	     10.43867530	     93.54193627	      0.00000000	     -9.94616871	      1.63261478	     13.00141614	      0.00000000	      0.00000000
      3.34000000	      6.07283606	    -31.71553028	      5.31215830	     -0.03358346	      0.52658008	     -1.17840497	    118.54174997	    -45.14474425	     17.42548995	     99.53351190	      0.00000000	      9.92430603	      1.73718750	     15.40560584	      0.00000000	      0.00000000	    110.72090479	    -30.70708935	     10.63367776	     93.80619836	      0.00000000	     -9.94638710	      1.63722702	     13.07541512	      0.00000000	      0.00000000
      3.34500000	      5.97721018	    -31.61915839	      5.26699244	     -0.03340667	      0.52497841	     -1.17844627	    118.68610241	    -45.06869462	     17.61191412	     99.75480857	      0.00000000	      9.92455941	      1.74104985	     15.45118075	      0.00000000	      0.00000000	    110.86555842	    -30.78912805	     10.81958194	     94.05933004	      0.00000000	     -9.94658480	      1.64164500	     13.14277302	      0.00000000	      0.00000000
      3.35000000	      5.94322759	    -31.58755526	      5.22784770	     -0.03320712	      0.52336131	     -1.17849118	    118.90664116	    -45.05572151	     17.80190960	     99.98684434	      0.00000000	      9.92489423	      1.74509964	     15.52003720	      0.00000000	      0.00000000	    111.09633401	    -30.81071630	     11.02291180	     94.31713738	      0.00000000	     -9.94679173	      1.64614459	     13.21527358	      0.00000000	      0.00000000
      3.35500000	      5.88698230	    -31.53412331	      5.17510971	     -0.03300577	      0.52174768	     -1.17852953	    119.08318050	    -45.02279636	     17.97465712	    100.21340773	      0.00000000	      9.92519218	      1.74905392	     15.59176185	      0.00000000	      0.00000000	    111.30473955	    -30.85248272	     11.23306487	     94.57273492	      0.00000000	     -9.94703327	      1.65060561	     13.29083203	      0.00000000	      0.00000000
      3.36000000	      5.85144341	    -31.51417913	      5.13483953	     -0.03282854	      0.52011915	     -1.17856703	    119.31721821	    -45.00143168	     18.16754378	    100.44211244	      0.00000000	      9.92551550	      1.75304557	     15.63795566	      0.00000000	      0.00000000	    111.55036880	    -30.87759159	     11.43998356	     94.82909639	      0.00000000	     -9.94725094	      1.65507996	     13.35722179	      0.00000000	      0.00000000
      3.36500000	      5.80907866	    -31.46189419	      5.09448400	     -0.03259520	      0.51850965	     -1.17858931	    119.50864145	    -44.97841255	     18.35216928	    100.67252673	      0.00000000	      9.92583203	      1.75706706	     15.70575730	      0.00000000	      0.00000000	    111.75651453	    -30.92003110	     11.63619704	     95.08097459	      0.00000000	     -9.94747804	      1.65947606	     13.42746948	      0.00000000	      0.00000000
      3.37000000	      5.76648639	    -31.39130503	      5.03709910	     -0.03234383	      0.51693168	     -1.17859868	    119.64544140	    -44.96345731	     18.50655407	    100.89771672	      0.00000000	      9.92617757	      1.76099736	     15.82673081	      0.00000000	      0.00000000	    111.94676602	    -30.95722651	     11.84308853	     95.32781661	      0.00000000	     -9.94772441	      1.66378427	     13.51021054	      0.00000000	      0.00000000
      3.37500000	      5.73272196	    -31.37893469	      5.01639821	     -0.03213359	      0.51532411	     -1.17861866	    119.90445832	    -44.92673112	     18.72879653	    101.12416702	      0.00000000	      9.92653323	      1.76494967	     15.83623644	      0.00000000	      0.00000000	    112.18741452	    -31.00512853	     12.02022371	     95.57259642	      0.00000000	     -9.94796308	      1.66805648	     13.55036558	      0.00000000	      0.00000000
      3.38000000	      5.69447156	    -31.31088009	      4.96356949	     -0.03186602	      0.51374228	     -1.17862503	    120.05730256	    -44.91652327	     18.89290428	    101.34569308	      0.00000000	      9.92681840	      1.76881603	     15.90366573	      0.00000000	      0.00000000	    112.38134164	    -31.04400465	     12.22516785	     95.81870907	      0.00000000	     -9.94820598	      1.67235196	     13.61656248	      0.00000000	      0.00000000
      3.38500000	      5.67583392	    -31.26117383	      4.93791932	     -0.03161360	      0.51215691	     -1.17861763	    120.25650244	    -44.90143026	     19.09833411	    101.57472567	      0.00000000	      9.92714819	      1.77281340	     15.97669488	      0.00000000	      0.00000000	    112.58622851	    -31.07846312	     12.40322489	     96.05672904	      0.00000000	     -9.94843593	      1.67650619	     13.64449688	      0.00000000	      0.00000000
      3.39000000	      5.64680036	    -31.20769434	      4.89513345	     -0.03135430	      0.51060084	     -1.17861039	    120.42130736	    -44.87984042	     19.27486867	    101.79091861	      0.00000000	      9.92748622	      1.77658668	     16.03856776	      0.00000000	      0.00000000	    112.78183237	    -31.10883871	     12.60012914	     96.29401006	      0.00000000	     -9.94869081	      1.68064753	     13.73513846	      0.00000000	      0.00000000
      3.39500000	      5.63910996	    -31.17063182	      4.86885719	     -0.03103988	      0.50903976	     -1.17858376	    120.62543508	    -44.87964075	     19.46732585	    102.02289889	      0.00000000	      9.92776217	      1.78063550	     16.13893023	      0.00000000	      0.00000000	    112.99173439	    -31.14294061	     12.77818719	     96.53013046	      0.00000000	     -9.94894490	      1.68476860	     13.82053175	      0.00000000	      0.00000000
      3.40000000	      5.62102504	    -31.11803646	      4.84937075	     -0.03076164	      0.50747036	     -1.17855166	    120.83082803	    -44.85432723	     19.68494006	    102.25744659	      0.00000000	      9.92804689	      1.78472913	     16.18971493	      0.00000000	      0.00000000	    113.18703532	    -31.19149793	     12.94125262	     96.75730086	      0.00000000	     -9.94918721	      1.68873348	     13.82218312	      0.00000000	      0.00000000
